<svg width="644" height="1045" viewBox="0 0 644 1045" fill="none" xmlns="http://www.w3.org/2000/svg">
<g opacity="0.5">
<path opacity="0.0344828" d="M172.929 801.637C177.837 807.485 185.235 811.111 194.96 812.57C204.695 814.03 216.698 813.307 230.696 810.51C258.69 804.914 294.455 791.061 335.573 770.143C417.795 728.314 521.223 658.342 626.348 570.132C731.473 481.921 818.342 392.216 873.813 318.506C901.553 281.645 921.407 248.829 931.778 222.231C936.964 208.932 939.76 197.237 940.012 187.397C940.265 177.565 937.979 169.65 933.072 163.802C928.164 157.954 920.766 154.328 911.041 152.87C901.306 151.41 889.303 152.132 875.305 154.93C847.311 160.525 811.546 174.379 770.428 195.297C688.206 237.125 584.778 307.098 479.653 395.308C374.528 483.518 287.659 573.224 232.188 646.933C204.448 683.794 184.594 716.61 174.223 743.208C169.037 756.507 166.241 768.203 165.989 778.043C165.736 787.874 168.022 795.789 172.929 801.637Z" stroke="#1C2129" stroke-width="2"/>
<path opacity="0.0689655" d="M202.17 837.516C207.569 842.915 215.254 845.882 225.07 846.487C234.895 847.093 246.789 845.328 260.49 841.32C287.891 833.306 322.312 816.389 361.451 791.967C439.714 743.131 536.649 664.41 633.686 567.374C730.723 470.337 809.444 373.401 858.279 295.138C882.701 255.999 899.619 221.578 907.633 194.177C911.64 180.477 913.406 168.582 912.8 158.758C912.194 148.942 909.227 141.256 903.829 135.858C898.431 130.459 890.745 127.492 880.929 126.887C871.105 126.281 859.21 128.047 845.509 132.054C818.109 140.068 783.688 156.985 744.549 181.408C666.285 230.243 569.35 308.964 472.313 406C375.276 503.037 296.556 599.973 247.72 678.236C223.298 717.375 206.38 751.796 198.366 779.197C194.359 792.897 192.594 804.792 193.2 814.616C193.805 824.432 196.772 832.118 202.17 837.516Z" stroke="#1C2129" stroke-width="2"/>
<path opacity="0.103448" d="M234.083 870.728C239.931 875.635 247.846 877.921 257.678 877.669C267.517 877.416 279.213 874.621 292.512 869.435C319.11 859.063 351.926 839.21 388.787 811.469C462.496 755.999 552.202 669.129 640.412 564.004C728.622 458.879 798.595 355.452 840.424 273.23C861.341 232.111 875.195 196.347 880.79 168.352C883.588 154.354 884.31 142.351 882.85 132.617C881.392 122.891 877.766 115.493 871.918 110.586C866.07 105.678 858.155 103.393 848.323 103.645C838.483 103.897 826.788 106.693 813.489 111.879C786.891 122.251 754.075 142.104 717.214 169.844C643.504 225.315 553.799 312.185 465.588 417.31C377.378 522.434 307.406 625.862 265.577 708.084C244.659 749.202 230.806 784.967 225.21 812.962C222.413 826.96 221.69 838.963 223.15 848.697C224.609 858.423 228.235 865.821 234.083 870.728Z" stroke="#1C2129" stroke-width="2"/>
<path opacity="0.137931" d="M268.422 901.046C274.675 905.425 282.759 907.013 292.531 905.904C302.312 904.795 313.719 900.991 326.516 894.665C352.108 882.015 383.069 859.377 417.372 828.53C485.966 766.846 567.76 672.489 646.472 560.076C725.184 447.663 785.876 338.53 820.38 252.976C837.634 210.191 848.318 173.355 851.452 144.979C853.019 130.79 852.693 118.77 850.39 109.2C848.089 99.6384 843.832 92.5845 837.579 88.2057C831.325 83.8269 823.241 82.2397 813.469 83.3478C803.688 84.457 792.281 88.2613 779.484 94.5867C753.892 107.237 722.931 129.875 688.628 160.722C620.034 222.406 538.241 316.764 459.528 429.176C380.816 541.589 320.124 650.722 285.621 736.276C268.366 779.061 257.682 815.897 254.548 844.273C252.981 858.462 253.308 870.482 255.611 880.052C257.911 889.614 262.168 896.668 268.422 901.046Z" stroke="#1C2129" stroke-width="2"/>
<path opacity="0.172414" d="M304.926 928.272C311.538 932.089 319.729 932.965 329.368 931.01C339.014 929.052 350.046 924.268 362.243 916.852C386.636 902.019 415.505 876.769 446.99 843.049C509.947 775.622 583.205 674.494 651.82 555.649C720.436 436.804 771.385 322.797 798.301 234.561C811.761 190.435 819.193 152.808 819.842 124.267C820.167 109.996 818.794 98.0494 815.666 88.7166C812.54 79.3918 807.685 72.7357 801.074 68.9186C794.462 65.1014 786.27 64.2249 776.632 66.1805C766.986 68.1379 755.953 72.9219 743.757 80.3385C719.364 95.1712 690.494 120.421 659.01 154.141C596.053 221.569 522.795 322.696 454.179 441.541C385.564 560.386 334.614 674.393 307.699 762.63C294.239 806.755 286.807 844.383 286.157 872.924C285.833 887.195 287.206 899.141 290.334 908.474C293.459 917.798 298.315 924.454 304.926 928.272Z" stroke="#1C2129" stroke-width="2"/>
<path opacity="0.206897" d="M343.319 952.227C350.238 955.453 358.475 955.612 367.906 952.824C377.345 950.034 387.919 944.306 399.422 935.855C422.43 918.952 448.989 891.282 477.414 854.947C534.255 782.289 598.421 675.162 656.417 550.788C714.413 426.415 755.233 308.401 774.355 218.155C783.918 173.024 788.043 134.892 786.202 106.403C785.282 92.1583 782.873 80.3772 778.943 71.3526C775.017 62.3357 769.6 56.1281 762.681 52.9017C755.762 49.6753 747.525 49.5161 738.094 52.3043C728.655 55.0949 718.081 60.8223 706.577 69.2737C683.57 86.1759 657.011 113.846 628.586 150.182C571.745 222.84 507.579 329.967 449.583 454.34C391.587 578.713 350.767 696.727 331.645 786.973C322.082 832.105 317.957 870.236 319.798 898.725C320.718 912.97 323.127 924.751 327.057 933.776C330.983 942.793 336.4 949 343.319 952.227Z" stroke="#1C2129" stroke-width="2"/>
<path opacity="0.241379" d="M383.307 972.762C390.481 975.373 398.701 974.813 407.853 971.214C417.013 967.611 427.047 960.984 437.771 951.562C459.217 932.719 483.263 902.839 508.414 864.165C558.706 786.829 613.291 674.517 660.226 545.563C707.162 416.608 737.54 295.486 748.725 203.916C754.318 158.123 755.104 119.777 750.787 91.557C748.628 77.4464 745.202 65.9201 740.501 57.2723C735.803 48.6319 729.866 42.92 722.692 40.309C715.518 37.6979 707.299 38.2571 698.147 41.8568C688.987 45.4594 678.953 52.0865 668.229 61.5084C646.783 80.3515 622.736 110.231 597.586 148.906C547.294 226.241 492.709 338.553 445.773 467.508C398.838 596.463 368.459 717.585 357.275 809.154C351.682 854.947 350.896 893.293 355.213 921.514C357.371 935.624 360.798 947.15 365.499 955.798C370.196 964.439 376.133 970.15 383.307 972.762Z" stroke="#1C2129" stroke-width="2"/>
<path opacity="0.275862" d="M424.587 989.744C431.962 991.72 440.101 990.446 448.905 986.063C457.716 981.675 467.134 974.199 476.996 963.878C496.718 943.238 518.069 911.376 539.753 870.656C583.114 789.232 627.702 672.59 663.22 540.035C698.738 407.48 718.444 284.172 721.605 191.976C723.186 145.87 720.626 107.601 713.867 79.8645C710.486 65.9957 706.068 54.8119 700.631 46.6068C695.199 38.4086 688.787 33.2359 681.412 31.26C674.038 29.2841 665.899 30.5577 657.095 34.9412C648.284 39.3286 638.866 46.8049 629.004 57.1256C609.282 77.7662 587.931 109.628 566.247 150.348C522.886 231.772 478.298 348.414 442.78 480.969C407.262 613.523 387.556 736.832 384.395 829.028C382.814 875.134 385.373 913.403 392.133 941.139C395.513 955.008 399.931 966.192 405.369 974.397C410.801 982.595 417.213 987.768 424.587 989.744Z" stroke="#1C2129" stroke-width="2"/>
<path opacity="0.310345" d="M466.845 1003.08C474.363 1004.41 482.361 1002.43 490.749 997.294C499.144 992.156 507.875 983.887 516.799 972.746C534.648 950.465 553.14 916.864 571.193 874.409C607.292 789.516 641.544 669.432 665.374 534.286C689.204 399.14 698.088 274.582 693.202 182.462C690.758 136.393 684.873 98.4935 675.722 71.4517C671.146 57.9303 665.77 47.1741 659.638 39.4741C653.512 31.7806 646.673 27.1865 639.155 25.8608C631.637 24.5351 623.639 26.5132 615.251 31.6474C606.856 36.786 598.125 45.0548 589.2 56.1956C571.352 78.4766 552.859 112.078 534.807 154.532C498.708 239.426 464.455 359.51 440.625 494.656C416.795 629.802 407.911 754.359 412.798 846.48C415.241 892.548 421.126 930.448 430.278 957.49C434.854 971.011 440.23 981.768 446.361 989.468C452.488 997.161 459.326 1001.76 466.845 1003.08Z" stroke="#1C2129" stroke-width="2"/>
<path opacity="0.344828" d="M509.758 1012.7C517.364 1013.37 525.158 1010.7 533.067 1004.85C540.983 999.001 548.959 990.003 556.879 978.127C572.718 954.375 588.211 919.289 602.495 875.423C631.058 787.706 654.714 665.094 666.674 528.385C678.635 391.677 676.629 266.819 663.733 175.475C657.283 129.795 648.117 92.5521 636.644 66.4108C630.907 53.3397 624.614 43.093 617.834 35.9566C611.061 28.8264 603.848 24.8457 596.243 24.1804C588.637 23.515 580.843 26.1826 572.934 32.0283C565.018 37.879 557.042 46.8773 549.122 58.7536C533.283 82.5054 517.79 117.591 503.506 161.457C474.943 249.174 451.287 371.786 439.327 508.495C427.366 645.204 429.372 770.061 442.268 861.405C448.718 907.085 457.884 944.328 469.357 970.469C475.094 983.54 481.387 993.787 488.166 1000.92C494.94 1008.05 502.153 1012.03 509.758 1012.7Z" stroke="#1C2129" stroke-width="2"/>
<path opacity="0.37931" d="M553 1018.56C560.634 1018.56 568.167 1015.22 575.536 1008.71C582.912 1002.19 590.074 992.531 596.928 980.01C610.636 954.968 623.013 918.666 633.42 873.722C654.228 783.849 667.108 659.642 667.108 522.411C667.108 385.18 654.228 260.972 633.42 171.1C623.013 126.156 610.636 89.8535 596.928 64.8117C590.074 52.2903 582.912 42.6311 575.536 36.1128C568.167 29.6 560.634 26.2632 553 26.2632C545.366 26.2632 537.833 29.6 530.464 36.1128C523.089 42.6311 515.926 52.2903 509.072 64.8117C495.364 89.8535 482.987 126.156 472.581 171.1C451.772 260.972 438.892 385.18 438.892 522.411C438.892 659.642 451.772 783.849 472.581 873.722C482.987 918.666 495.364 954.968 509.072 980.01C515.926 992.531 523.089 1002.19 530.464 1008.71C537.833 1015.22 545.366 1018.56 553 1018.56Z" stroke="#1C2129" stroke-width="2"/>
<path opacity="0.413793" d="M596.242 1020.64C603.848 1019.98 611.061 1015.99 617.834 1008.86C624.614 1001.73 630.907 991.481 636.644 978.41C648.117 952.269 657.283 915.026 663.732 869.346C676.629 778.002 678.635 653.144 666.674 516.436C654.714 379.727 631.057 257.115 602.495 169.398C588.211 125.531 572.717 90.4461 556.879 66.6943C548.959 54.818 540.982 45.8198 533.067 39.969C525.158 34.1233 517.363 31.4557 509.758 32.1211C502.153 32.7865 494.94 36.7671 488.166 43.8973C481.387 51.0337 475.094 61.2804 469.357 74.3515C457.883 100.493 448.718 137.736 442.268 183.416C429.371 274.76 427.366 399.617 439.326 536.326C451.287 673.035 474.943 795.647 503.506 883.364C517.789 927.23 533.283 962.315 549.122 986.067C557.041 997.944 565.018 1006.94 572.934 1012.79C580.842 1018.64 588.637 1021.31 596.242 1020.64Z" stroke="#1C2129" stroke-width="2"/>
<path opacity="0.448276" d="M639.155 1018.96C646.674 1017.64 653.512 1013.04 659.639 1005.35C665.77 997.648 671.146 986.891 675.722 973.37C684.874 946.328 690.759 908.428 693.202 862.36C698.089 770.239 689.204 645.682 665.375 510.536C641.545 375.39 607.292 255.306 571.193 170.412C553.141 127.958 534.648 94.3564 516.8 72.0755C507.875 60.9346 499.144 52.6658 490.749 47.5272C482.361 42.3931 474.363 40.415 466.845 41.7406C459.327 43.0663 452.488 47.6605 446.362 55.3539C440.23 63.054 434.854 73.8102 430.278 87.3315C421.127 114.373 415.242 152.273 412.798 198.342C407.911 290.462 416.796 415.019 440.626 550.165C464.455 685.311 498.708 805.396 534.807 890.289C552.86 932.744 571.352 966.345 589.201 988.626C598.125 999.767 606.856 1008.04 615.251 1013.17C623.639 1018.31 631.637 1020.29 639.155 1018.96Z" stroke="#1C2129" stroke-width="2"/>
<path opacity="0.482759" d="M681.413 1013.56C688.787 1011.58 695.199 1006.41 700.632 998.213C706.069 990.008 710.487 978.824 713.867 964.955C720.627 937.219 723.186 898.95 721.605 852.844C718.444 760.648 698.738 637.339 663.22 504.785C627.702 372.23 583.114 255.588 539.753 174.164C518.069 133.444 496.719 101.582 476.996 80.9417C467.134 70.621 457.716 63.1446 448.905 58.7573C440.101 54.3737 431.962 53.1002 424.588 55.0761C417.214 57.052 410.801 62.2247 405.369 70.4228C399.932 78.628 395.514 89.8118 392.134 103.681C385.374 131.417 382.814 169.686 384.395 215.792C387.556 307.988 407.262 431.297 442.78 563.851C478.298 696.406 522.886 813.048 566.247 894.472C587.931 935.192 609.282 967.054 629.004 987.694C638.866 998.015 648.284 1005.49 657.095 1009.88C665.899 1014.26 674.039 1015.54 681.413 1013.56Z" stroke="#1C2129" stroke-width="2"/>
<path opacity="0.517241" d="M722.693 1004.51C729.866 1001.9 735.804 996.191 740.501 987.551C745.202 978.903 748.629 967.377 750.787 953.266C755.104 925.046 754.318 886.7 748.725 840.907C737.541 749.338 707.162 628.215 660.227 499.261C613.291 370.306 558.706 257.994 508.414 180.659C483.264 141.984 459.217 112.104 437.771 93.2611C427.047 83.8392 417.013 77.2121 407.853 73.6094C398.701 70.0098 390.481 69.4506 383.308 72.0616C376.134 74.6727 370.197 80.3846 365.499 89.025C360.798 97.6728 357.371 109.199 355.213 123.31C350.896 151.53 351.682 189.876 357.275 235.669C368.459 327.238 398.838 448.36 445.774 577.315C492.709 706.27 547.294 818.582 597.586 895.917C622.736 934.592 646.783 964.472 668.229 983.315C678.953 992.737 688.987 999.364 698.147 1002.97C707.299 1006.57 715.519 1007.13 722.693 1004.51Z" stroke="#1C2129" stroke-width="2"/>
<path opacity="0.551724" d="M762.681 991.919C769.6 988.692 775.017 982.485 778.943 973.468C782.872 964.443 785.281 952.662 786.202 938.417C788.043 909.928 783.918 871.796 774.355 826.665C755.232 736.419 714.413 618.405 656.417 494.032C598.421 369.659 534.255 262.531 477.414 189.873C448.989 153.538 422.429 125.868 399.422 108.966C387.918 100.514 377.345 94.7867 367.906 91.9961C358.475 89.2079 350.238 89.3671 343.319 92.5935C336.4 95.8199 330.983 102.028 327.057 111.044C323.127 120.069 320.718 131.85 319.798 146.095C317.957 174.584 322.082 212.716 331.645 257.847C350.767 348.093 391.587 466.107 449.583 590.48C507.579 714.854 571.745 821.981 628.585 894.639C657.011 930.974 683.57 958.644 706.577 975.547C718.081 983.998 728.654 989.725 738.094 992.516C747.525 995.304 755.762 995.145 762.681 991.919Z" stroke="#1C2129" stroke-width="2"/>
<path opacity="0.586207" d="M801.074 975.902C807.685 972.085 812.54 965.429 815.666 956.104C818.794 946.771 820.167 934.825 819.842 920.554C819.193 892.013 811.761 854.386 798.301 810.26C771.386 722.024 720.436 608.017 651.821 489.172C583.205 370.326 509.947 269.199 446.99 201.772C415.506 168.052 386.636 142.802 362.243 127.969C350.047 120.553 339.014 115.769 329.368 113.811C319.73 111.856 311.538 112.732 304.926 116.549C298.315 120.366 293.46 127.023 290.334 136.347C287.206 145.68 285.833 157.626 286.158 171.897C286.807 200.438 294.239 238.065 307.699 282.191C334.615 370.428 385.564 484.434 454.18 603.28C522.795 722.125 596.053 823.252 659.01 890.68C690.494 924.399 719.364 949.65 743.757 964.482C755.954 971.899 766.986 976.683 776.632 978.64C786.271 980.596 794.462 979.719 801.074 975.902Z" stroke="#1C2129" stroke-width="2"/>
<path opacity="0.62069" d="M837.578 956.615C843.832 952.236 848.089 945.182 850.389 935.62C852.692 926.05 853.019 914.03 851.452 899.841C848.317 871.466 837.634 834.63 820.379 791.845C785.876 706.29 725.184 597.158 646.472 484.745C567.759 372.332 485.966 277.974 417.372 216.291C383.069 185.443 352.108 162.805 326.515 150.155C313.719 143.829 302.312 140.025 292.531 138.916C282.759 137.808 274.675 139.395 268.421 143.774C262.168 148.153 257.911 155.207 255.61 164.768C253.307 174.338 252.981 186.359 254.548 200.547C257.682 228.923 268.366 265.759 285.62 308.544C320.124 394.099 380.816 503.231 459.528 615.644C538.24 728.057 620.033 822.414 688.628 884.098C722.931 914.945 753.892 937.583 779.484 950.234C792.281 956.559 803.688 960.363 813.469 961.473C823.241 962.581 831.325 960.994 837.578 956.615Z" stroke="#1C2129" stroke-width="2"/>
<path opacity="0.655172" d="M871.918 934.236C877.766 929.329 881.391 921.931 882.85 912.205C884.31 902.471 883.588 890.468 880.79 876.47C875.194 848.475 861.341 812.71 840.423 771.592C798.595 689.37 728.622 585.943 640.412 480.818C552.202 375.693 462.496 288.823 388.787 233.353C351.925 205.612 319.109 185.759 292.512 175.387C279.212 170.201 267.517 167.406 257.677 167.153C247.846 166.901 239.931 169.187 234.082 174.094C228.234 179.001 224.609 186.399 223.15 196.125C221.69 205.859 222.412 217.862 225.21 231.86C230.805 259.855 244.659 295.62 265.577 336.738C307.405 418.96 377.378 522.387 465.588 627.512C553.798 732.637 643.504 819.507 717.213 874.977C754.075 902.718 786.89 922.571 813.488 932.943C826.788 938.129 838.483 940.924 848.323 941.177C858.154 941.429 866.069 939.143 871.918 934.236Z" stroke="#1C2129" stroke-width="2"/>
<path opacity="0.689655" d="M903.829 908.963C909.228 903.565 912.195 895.879 912.8 886.063C913.406 876.238 911.641 864.344 907.633 850.643C899.619 823.243 882.702 788.821 858.28 749.683C809.444 671.419 730.723 574.484 633.687 477.447C536.65 380.41 439.714 301.689 361.451 252.854C322.312 228.432 287.891 211.514 260.49 203.5C246.79 199.493 234.895 197.727 225.071 198.333C215.255 198.939 207.569 201.906 202.171 207.304C196.772 212.702 193.805 220.388 193.2 230.204C192.594 240.029 194.36 251.923 198.367 265.624C206.381 293.024 223.298 327.446 247.721 366.584C296.556 444.848 375.277 541.783 472.313 638.82C569.35 735.857 666.286 814.578 744.549 863.413C783.688 887.835 818.109 904.753 845.51 912.767C859.21 916.774 871.105 918.54 880.929 917.934C890.745 917.328 898.431 914.361 903.829 908.963Z" stroke="#1C2129" stroke-width="2"/>
<path opacity="0.724138" d="M933.071 881.02C937.978 875.172 940.264 867.257 940.012 857.426C939.759 847.586 936.964 835.89 931.778 822.591C921.406 795.993 901.553 763.177 873.813 726.316C818.342 652.607 731.472 562.901 626.347 474.691C521.222 386.481 417.795 316.508 335.573 274.68C294.455 253.762 258.69 239.908 230.695 234.313C216.697 231.515 204.694 230.793 194.96 232.253C185.234 233.711 177.836 237.337 172.929 243.185C168.022 249.033 165.736 256.949 165.988 266.78C166.241 276.62 169.036 288.315 174.222 301.614C184.594 328.212 204.447 361.028 232.188 397.889C287.658 471.599 374.528 561.304 479.653 649.515C584.778 737.725 688.205 807.697 770.427 849.526C811.546 870.444 847.31 884.297 875.305 889.893C889.303 892.69 901.306 893.413 911.04 891.953C920.766 890.494 928.164 886.869 933.071 881.02Z" stroke="#1C2129" stroke-width="2"/>
<path opacity="0.758621" d="M959.42 850.651C963.799 844.398 965.387 836.313 964.278 826.541C963.169 816.761 959.365 805.354 953.04 792.557C940.389 766.964 917.751 736.004 886.904 701.701C825.22 633.106 730.863 551.313 618.45 472.601C506.037 393.888 396.904 333.196 311.35 298.693C268.565 281.439 231.729 270.755 203.353 267.621C189.165 266.054 177.144 266.38 167.574 268.683C158.012 270.984 150.959 275.24 146.58 281.494C142.201 287.748 140.614 295.832 141.722 305.604C142.831 315.384 146.635 326.792 152.961 339.588C165.611 365.181 188.249 396.141 219.096 430.445C280.78 499.039 375.138 580.832 487.55 659.544C599.963 738.257 709.096 798.949 794.65 833.452C837.435 850.707 874.272 861.39 902.647 864.525C916.836 866.092 928.856 865.765 938.426 863.462C947.988 861.161 955.042 856.905 959.42 850.651Z" stroke="#1C2129" stroke-width="2"/>
<path opacity="0.793103" d="M982.676 818.115C986.493 811.504 987.37 803.312 985.414 793.674C983.457 784.027 978.673 772.995 971.256 760.798C956.424 736.406 931.173 707.536 897.454 676.052C830.026 613.095 728.899 539.837 610.054 471.221C491.209 402.606 377.202 351.656 288.965 324.741C244.839 311.281 207.212 303.848 178.671 303.199C164.4 302.875 152.454 304.248 143.121 307.376C133.797 310.501 127.141 315.356 123.323 321.968C119.506 328.579 118.63 336.771 120.585 346.409C122.543 356.056 127.327 367.088 134.743 379.285C149.576 403.677 174.826 432.547 208.546 464.031C275.973 526.989 377.1 600.247 495.946 668.862C614.791 737.478 728.798 788.427 817.034 815.342C861.16 828.802 898.787 836.235 927.328 836.884C941.599 837.209 953.546 835.836 962.878 832.708C972.203 829.582 978.859 824.727 982.676 818.115Z" stroke="#1C2129" stroke-width="2"/>
<path opacity="0.827586" d="M1002.66 783.692C1005.89 776.773 1006.05 768.536 1003.26 759.105C1000.47 749.666 994.742 739.093 986.291 727.589C969.389 704.582 941.718 678.022 905.383 649.597C832.725 592.756 725.598 528.591 601.224 470.594C476.851 412.598 358.837 371.779 268.591 352.656C223.46 343.093 185.328 338.968 156.839 340.809C142.594 341.73 130.813 344.139 121.789 348.068C112.772 351.995 106.564 357.411 103.338 364.33C100.111 371.249 99.9521 379.486 102.74 388.917C105.531 398.357 111.258 408.93 119.71 420.434C136.612 443.441 164.282 470 200.618 498.426C273.276 555.267 380.403 619.432 504.776 677.428C629.149 735.425 747.163 776.244 837.409 795.367C882.541 804.93 920.672 809.054 949.161 807.213C963.406 806.293 975.187 803.884 984.212 799.954C993.229 796.028 999.436 790.611 1002.66 783.692Z" stroke="#1C2129" stroke-width="2"/>
<path opacity="0.862069" d="M1019.23 747.673C1021.84 740.499 1021.28 732.279 1017.68 723.127C1014.08 713.967 1007.45 703.933 998.026 693.209C979.183 671.763 949.304 647.717 910.629 622.566C833.294 572.274 720.982 517.689 592.027 470.754C463.072 423.818 341.95 393.439 250.38 382.255C204.588 376.662 166.241 375.876 138.021 380.193C123.911 382.352 112.384 385.778 103.737 390.479C95.0963 395.177 89.3844 401.114 86.7733 408.288C84.1622 415.462 84.7215 423.681 88.3211 432.833C91.9238 441.993 98.5509 452.027 107.973 462.751C126.816 484.197 156.696 508.244 195.37 533.394C272.706 583.686 385.018 638.271 513.972 685.207C642.927 732.142 764.049 762.521 855.619 773.705C901.412 779.298 939.758 780.084 967.978 775.767C982.088 773.609 993.615 770.182 1002.26 765.481C1010.9 760.784 1016.61 754.847 1019.23 747.673Z" stroke="#1C2129" stroke-width="2"/>
<path opacity="0.896552" d="M1032.24 710.362C1034.22 702.988 1032.94 694.848 1028.56 686.044C1024.17 677.233 1016.7 667.815 1006.38 657.953C985.736 638.231 953.874 616.88 913.154 595.196C831.73 551.836 715.088 507.247 582.533 471.729C449.979 436.211 326.67 416.505 234.474 413.344C188.368 411.763 150.099 414.323 122.363 421.083C108.494 424.463 97.3099 428.881 89.1048 434.318C80.9067 439.75 75.734 446.163 73.7581 453.537C71.7822 460.911 73.0557 469.051 77.4393 477.854C81.8266 486.665 89.303 496.084 99.6237 505.945C120.264 525.668 152.126 547.019 192.846 568.703C274.27 612.063 390.912 656.651 523.467 692.169C656.021 727.687 779.33 747.394 871.526 750.555C917.632 752.135 955.901 749.576 983.637 742.816C997.506 739.436 1008.69 735.018 1016.9 729.581C1025.09 724.148 1030.27 717.736 1032.24 710.362Z" stroke="#1C2129" stroke-width="2"/>
<path opacity="0.931035" d="M1041.61 672.074C1042.94 664.556 1040.96 656.558 1035.82 648.17C1030.68 639.775 1022.42 631.044 1011.27 622.119C988.994 604.271 955.393 585.778 912.938 567.726C828.044 531.627 707.96 497.374 572.814 473.544C437.668 449.714 313.111 440.83 220.991 445.717C174.922 448.16 137.022 454.045 109.981 463.197C96.4591 467.773 85.7029 473.149 78.0029 479.28C70.3094 485.407 65.7153 492.245 64.3896 499.764C63.0639 507.282 65.042 515.279 70.1762 523.668C75.3148 532.063 83.5836 540.794 94.7245 549.718C117.005 567.567 150.607 586.059 193.061 604.112C277.955 640.211 398.039 674.463 533.185 698.293C668.331 722.123 792.888 731.007 885.009 726.121C931.077 723.677 968.977 717.792 996.019 708.641C1009.54 704.065 1020.3 698.689 1028 692.557C1035.69 686.431 1040.28 679.592 1041.61 672.074Z" stroke="#1C2129" stroke-width="2"/>
<path opacity="0.965517" d="M1047.26 633.129C1047.92 625.524 1045.26 617.729 1039.41 609.82C1033.56 601.905 1024.56 593.928 1012.69 586.008C988.934 570.17 953.849 554.676 909.983 540.392C822.266 511.83 699.653 488.173 562.945 476.213C426.236 464.252 301.379 466.258 210.035 479.155C164.354 485.604 127.112 494.77 100.97 506.243C87.8992 511.98 77.6525 518.274 70.5162 525.053C63.3859 531.826 59.4053 539.039 58.7399 546.645C58.0746 554.25 60.7422 562.045 66.5879 569.953C72.4386 577.869 81.4369 585.846 93.3132 593.765C117.065 609.604 152.15 625.098 196.017 639.381C283.733 667.944 406.346 691.6 543.054 703.561C679.763 715.521 804.621 713.516 895.965 700.619C941.645 694.169 978.888 685.004 1005.03 673.53C1018.1 667.793 1028.35 661.5 1035.48 654.721C1042.61 647.947 1046.59 640.734 1047.26 633.129Z" stroke="#1C2129" stroke-width="2"/>
<path d="M1049.15 593.857C1049.15 586.223 1045.81 578.69 1039.3 571.321C1032.78 563.945 1023.12 556.783 1010.6 549.929C985.558 536.22 949.255 523.844 904.311 513.437C814.439 492.629 690.231 479.749 553 479.749C415.769 479.749 291.562 492.629 201.689 513.437C156.745 523.844 120.443 536.22 95.401 549.929C82.8797 556.783 73.2204 563.945 66.7021 571.321C60.1893 578.69 56.8525 586.223 56.8525 593.857C56.8525 601.491 60.1893 609.024 66.7021 616.393C73.2204 623.768 82.8797 630.93 95.401 637.785C120.443 651.493 156.745 663.87 201.689 674.276C291.562 695.085 415.769 707.965 553 707.965C690.231 707.965 814.439 695.085 904.311 674.276C949.255 663.87 985.558 651.493 1010.6 637.785C1023.12 630.93 1032.78 623.768 1039.3 616.393C1045.81 609.024 1049.15 601.491 1049.15 593.857Z" stroke="#1C2129" stroke-width="2"/>
</g>
</svg>
